# xmcd
#
# Track frame offsets: 
#        150
#        30269
#        91559
#        113676
#        168374
#        186388
#        208928
#        223821
#        246884
#        263263
#        281433
#        309424
#        319831
#
# Disc length: 4648 seconds
#
# Revision: 0
# Processed by: cddbd v1.4PL0 Copyright (c) Steve Scherf et al.
# Submitted via: ExactAudioCopy v0.90b4
#
DISCID=ab12260d
DTITLE=John Nitzinger und Elliott Murphy - WDR JazzNacht-Crossroads-Bl
DTITLE=ues And More-WDR-FS 020503
DYEAR=2003
DGENRE=Blues
TTITLE0=John Nitzinger and Band - WDR Jazznacht Crossroads 02.05.03
TTITLE1=John Nitzinger and Band - WDR Jazznacht Crossroads 02.05.03
TTITLE2=John Nitzinger and Band - WDR Jazznacht Crossroads 02.05.03
TTITLE3=John Nitzinger and Band - WDR Jazznacht Crossroads 02.05.03
TTITLE4=Elliott Murphy - WDR Jazznacht Crossroads 02.05.03
TTITLE5=Elliott Murphy - WDR Jazznacht Crossroads 02.05.03
TTITLE6=Elliott Murphy - WDR Jazznacht Crossroads 02.05.03
TTITLE7=Elliott Murphy - WDR Jazznacht Crossroads 02.05.03
TTITLE8=Elliott Murphy - WDR Jazznacht Crossroads 02.05.03
TTITLE9=Elliott Murphy - WDR Jazznacht Crossroads 02.05.03
TTITLE10=Elliott Murphy - WDR Jazznacht Crossroads 02.05.03
TTITLE11=Elliott Murphy - WDR Jazznacht Crossroads 02.05.03
TTITLE12=Elliott Murphy - WDR Jazznacht Crossroads 02.05.03
EXTD=
EXTT0=
EXTT1=
EXTT2=
EXTT3=
EXTT4=
EXTT5=
EXTT6=
EXTT7=
EXTT8=
EXTT9=
EXTT10=
EXTT11=
EXTT12=
PLAYORDER=
